<svg width="25" height="25" viewBox="0 0 25 25" fill="none" xmlns="http://www.w3.org/2000/svg">
<path d="M21.8755 21.0943C21.8755 21.3015 21.7932 21.5002 21.6467 21.6467C21.5002 21.7933 21.3014 21.8756 21.0942 21.8756H3.90674C3.69954 21.8756 3.50082 21.7933 3.35431 21.6467C3.2078 21.5002 3.12549 21.3015 3.12549 21.0943C3.12549 20.8871 3.2078 20.6884 3.35431 20.5419C3.50082 20.3954 3.69954 20.3131 3.90674 20.3131H21.0942C21.3014 20.3131 21.5002 20.3954 21.6467 20.5419C21.7932 20.6884 21.8755 20.8871 21.8755 21.0943ZM14.8438 18.75H18.75C19.1643 18.7495 19.5614 18.5848 19.8543 18.2918C20.1473 17.9989 20.312 17.6018 20.3125 17.1875V7.8125C20.312 7.39824 20.1473 7.00109 19.8543 6.70817C19.5614 6.41525 19.1643 6.25047 18.75 6.25H14.8438C14.4295 6.25047 14.0324 6.41525 13.7394 6.70817C13.4465 7.00109 13.2817 7.39824 13.2813 7.8125V17.1875C13.2817 17.6018 13.4465 17.9989 13.7394 18.2918C14.0324 18.5848 14.4295 18.7495 14.8438 18.75ZM6.25001 18.75H10.1563C10.5705 18.7495 10.9677 18.5848 11.2606 18.2918C11.5535 17.9989 11.7183 17.6018 11.7188 17.1875V3.90625C11.7183 3.49199 11.5535 3.09484 11.2606 2.80192C10.9677 2.509 10.5705 2.34422 10.1563 2.34375H6.25001C5.83576 2.34422 5.4386 2.509 5.14568 2.80192C4.85276 3.09484 4.68799 3.49199 4.68751 3.90625V17.1875C4.68799 17.6018 4.85276 17.9989 5.14568 18.2918C5.4386 18.5848 5.83576 18.7495 6.25001 18.75Z" fill="white"/>
</svg>
